<svg xmlns="http://www.w3.org/2000/svg" viewBox="0 0 100 100" width="100" height="100">
  <rect width="100" height="100" fill="none"/>
  <path d="M 18,24 C 6,24 -2,40 2,54 C 6,64 18,58 24,46 C 26,42 24,32 18,24 Z" fill="#8370a1" stroke="#2b2d42" stroke-width="3.5" stroke-linejoin="round"/>
  <path d="M 14,30 C 8,36 4,46 6,52 C 10,54 16,48 20,40" fill="none" stroke="#9c89b8" stroke-width="2" stroke-linecap="round"/>
  <path d="M 22,38 Q 22,10 50,10 Q 78,10 78,38 Q 78,54 74,54 Q 70,22 50,22 Q 30,22 26,54 Q 22,54 22,38" fill="#9c89b8" stroke="#2b2d42" stroke-width="4" stroke-linejoin="round"/>
  <path d="M 22,34 C 26,37 32,30 40,36 C 48,30 58,37 66,32 C 72,29 78,35 78,35 C 75,18 25,18 22,34 Z" fill="#b5a2d0" stroke="#2b2d42" stroke-width="3.5" stroke-linejoin="round"/>
  <path d="M 23,34 L 23,44 M 77,34 L 77,42" fill="none" stroke="#2b2d42" stroke-width="3" stroke-linecap="round"/>
</svg>
